<svg class="d-none" xmlns="http://www.w3.org/2000/svg">
  <symbol id="logo" viewBox="0 0 666 689">
   <path
           d="m 202,670 c -1.81075,-10.52295 -7.1908,-20.745 -10.28009,-31 -6.08286,-20.1922 -10.92955,-41.09656 -13.85031,-62 -1.6462,-11.78156 -8.4931,-31.0838 9.1304,-32 0.76053,36.84741 11.59958,78.78461 24.81096,113 4.84688,12.55267 10.53468,29.11169 22.1898,36.89508 10.47426,6.99481 24.80832,7.10413 36.99924,7.10492 26.81445,0.002 53.20242,-1.86627 79,-9.7207 16.27875,-4.95624 35.30743,-12.85456 49,-23.0401 8.66626,-6.4466 13.99713,-17.2815 25,-20.31098 18.81793,-5.18121 26.90045,15.47248 44,13.90125 39.23013,-3.60468 74.9295,-25.0025 115,-25.77545 11.51746,-0.22217 22.1319,3.97943 33,6.94598 v 1 c -26.20782,3.31506 -52.41437,7.15717 -78,13.88428 -22.90894,6.02331 -45.34442,15.03753 -69,17.82867 -6.25296,0.73779 -13.7894,-0.73132 -19,-4.36188 -6.80212,-4.73944 -12.51776,-13.23455 -22,-10.79242 -7.68915,1.98035 -11.53961,10.271 -17.00385,15.34797 C 400.53287,686.62836 376.6554,689.86731 370,702 h 138 c 30.97522,0 62.27466,1.39978 93,-2.86963 25.06641,-3.48303 62.82422,-8.1767 64.90973,-40.13037 0.38812,-5.94702 -1.40997,-11.34552 -2.90973,-17 9.3653,7.47821 6.85028,18.92187 13.85339,26.62347 2.47724,2.72425 5.37329,-0.0769 6.4043,-2.64355 C 695.617,635.21301 657.84802,608.8681 643.34412,588 c -14.95118,-21.51166 -27.10523,-45.18018 -42.99848,-66 -10.20898,-13.3735 -24.044,-23.56375 -33.85644,-37 -9.77619,-13.3866 -15.83838,-28.95215 -26.29706,-42 -15.56275,-19.41544 -36.78308,-34.00015 -51.67746,-54 -8.63187,-11.5907 -14.06271,-38.30585 -8.5849,-52 2.96084,-7.40189 20.08188,-18.75375 15.87576,-26.89581 -3.17364,-6.14341 -10.22159,-10.87152 -13.63193,-17.20838 -1.49621,-2.78018 -0.74585,-6.89966 -3.60726,-8.86804 C 474.04794,280.91956 465.366,283.11398 460,281.00925 449.53851,276.90588 443.28128,267.10541 432,263.72147 407.65598,256.41925 380.99863,275.68674 374.42825,299 c -2.7843,9.87939 0.0711,21.68463 -3.57641,31 -4.15512,10.61188 -17.38095,14.14059 -20.02933,26 -1.39609,6.25168 -0.42319,14.98462 4.51776,19.58102 5.86725,5.4581 14.5611,2.80826 16.65973,-4.58102 h 1 c -0.005,8.18723 -2.07446,15.46533 -11,17.94138 -4.05432,1.12469 -10.29166,0.006 -13.25772,3.49227 C 340.79144,401.78009 354.62573,428.1723 331,424 c 6.23535,11.87769 18.23364,5.3454 27,-0.0648 21.28284,-13.1348 38.31763,-33.49213 61,-44.15356 6.88379,-3.2356 31.05676,-11.14759 34.10956,1.25775 0.71496,2.90539 -1.539,4.96286 -4.12885,5.64273 -11.23489,2.94925 -20.22409,1.95962 -30.98071,8.33258 -14.95364,8.85956 -26.73779,22.10779 -41,31.95987 -19.00931,13.13132 -39.21671,21.50567 -60,31.18902 -37.06891,17.27118 -67.94379,47.43668 -107,60.50312 -8.82922,2.95385 -25.76143,11.69055 -34.95679,9.80633 C 166.91391,526.80719 164.79166,503.73801 160.33257,497 135.85861,460.01807 119.13895,417.53064 116.08951,373 107.07659,241.38525 205.44798,108.88849 326,63.425171 406.306,33.139709 523.42145,45.085449 564,132 c 2.76715,-6.78418 -2.46338,-16.78595 -5.30865,-23 C 549.4198,88.751221 535.10651,70.305664 518,56.081055 456.06686,4.581604 365.77835,-10.92749 288,5.6612549 219.89888,20.186035 156.45232,52.718567 106,101.03937 -11.74073,213.80585 -32.510273,398.88788 50.399693,537 76.038673,579.70966 111.53118,616.82269 153,644.33258 c 14.47179,9.6004 31.92761,21.61224 49,25.66742 m 7,-497 c 7.44968,-2.0285 13.68633,-8.65875 20,-12.97144 11.14294,-7.61138 22.94765,-14.71209 35,-20.78088 48.73581,-24.54016 101.31201,-38.43732 156,-32.29785 21.77798,2.44488 63.26483,9.50806 71.39661,34.05017 1.72979,5.22064 -1.03925,12.11407 -7.39737,11.66284 -10.25226,-0.7276 -10.89569,-17.44525 -21.99924,-17.44525 -8.19812,0 -10.32047,9.37457 -11.05017,15.78241 -1.66644,14.63379 1.77753,29.47833 11.37579,41 25.78025,30.94632 74.71979,23.65555 88.58411,-15 C 570.9187,121.21228 506.29752,82.093201 462,70.010803 390.63144,50.544617 310.508,75.924316 255,122.08105 239.93185,134.61072 215.14923,153.73615 209,173 m 440,129 c -5.30225,0 -12.11591,-1.11197 -16.95679,1.45679 -8.51538,4.51858 -7.64093,17.90594 -0.0247,22.80093 C 636.65076,329.23489 643.73529,328 649,328 c 0,5.20059 -0.76239,11.17084 1.57251,15.99615 4.31256,8.91227 16.65826,9.95884 22.43286,1.81867 C 676.66779,340.65207 676,333.97861 676,328 c 5.55475,0 12.03912,0.91754 16.89508,-2.34415 6.90143,-4.63562 7.20758,-17.10934 0.061,-21.6466 C 688.14044,300.95187 681.44104,302 676,302 c 0,-6.1972 0.55768,-13.6572 -3.65198,-18.78625 -5.72223,-6.97199 -17.92016,-4.90394 -21.89123,2.80169 C 648.05042,290.68488 649,296.91278 649,302 m -56,57 c -5.10461,0 -12.31647,-1.28329 -16.95679,1.17902 -8.54175,4.53256 -7.75219,18.21673 -0.0278,22.96295 C 580.8042,386.08438 587.62244,385 593,385 c 0,5.75638 -1.02875,12.92636 2.70294,17.81174 5.79224,7.58297 18.38501,5.76742 22.20758,-2.82718 C 619.8833,395.54898 619,389.74417 619,385 c 5.55084,0 11.98889,0.84219 16.98456,-2.08951 7.7868,-4.5697 8.94494,-16.74902 0.91052,-21.82098 C 631.85492,357.90778 624.67712,359 619,359 c 0,-5.27539 1.11792,-12.12885 -1.31787,-16.98456 -4.37091,-8.71341 -17.52075,-9.10034 -22.67285,-0.97146 C 591.81573,346.0827 593,353.30505 593,359 m -67,73 c 6.27515,7.36243 11.18726,16.1532 11.90973,26 0.93494,12.7431 -2.86041,27.46942 4.02081,39 5.48273,9.18713 14.07923,16.57697 20.64508,25 16.20716,20.79132 31.87964,41.42236 49.59412,61 9.26947,10.24438 27.09967,22.88678 29.83026,37 -10.05896,1.93524 -23.04871,-4.63892 -33,-6.7901 -22.21045,-4.80139 -44.51373,-6.73297 -67,-9.49463 -7.37201,-0.90539 -26.42615,1.51318 -29.83722,-6.8233 -2.52539,-6.17194 2.57239,-13.45221 4.97534,-18.89197 5.20594,-11.78516 8.66449,-24.44507 11.4375,-37 4.65521,-21.07678 0.35602,-38.12808 -0.12042,-59 -0.22345,-9.78967 4.7713,-19.19269 4.16595,-29 -0.46032,-7.45734 -6.6408,-14.03708 -6.62115,-21 m -345,88 c 10.79626,-0.88184 44.76024,-7.48071 37.63194,-23.99615 -4.33322,-10.03956 -17.66781,-13.45057 -23.51312,-23.00461 -5.78842,-9.46109 -2.34967,-20.00089 -5.71759,-29.99539 -1.13886,-3.37964 -3.92123,-8.3834 -8.2963,-7.12809 -6.22067,1.78485 -3.99498,14.22284 -4.90895,19.12424 -4.06146,21.78076 3.87012,43.24908 4.80402,65 m 236,-81.65894 c 15.66095,-2.14999 14.64276,17.76941 16.88812,27.65894 5.70832,25.14172 29.21771,51.80505 16.1929,79 -7.9526,16.60455 -37.01034,15.66248 -51.08102,25.92749 -14.85611,10.83801 -17.42133,28.34058 -29.18518,41.0293 -6.51462,7.02679 -16.43823,10.1018 -24.81482,14.2901 -20.20624,10.10315 -42.91251,24.08258 -66,25.66363 -15.55835,1.06543 -18.54129,-11.25396 -24.37036,-22.91052 -10.03546,-20.0683 -24.25685,-37.67944 -33.84877,-58 -3.61025,-7.64832 -10.16654,-20.80029 -5.03859,-28.99615 6.11127,-9.76746 21.64995,-15.08442 31.25772,-20.80323 34.94293,-20.79907 75.5401,-27.39734 110,-49.25384 13.15286,-8.34235 26.45831,-16.52426 40,-24.22766 6.21219,-3.53391 12.74649,-8.38227 20,-9.37806 M 229,554 c 6.26192,22.89471 23.76552,42.38312 34.97144,63 3.21695,5.91864 5.68881,18.63153 13.06869,20.5517 5.12955,1.33465 12.14615,-1.93116 16.95987,-3.55555 15.02774,-5.0711 29.2645,-12.1455 43,-19.99536 4.13205,-2.36151 16.68677,-7.12158 14.33798,-13.72223 -1.14334,-3.21313 -5.59472,-3.0924 -8.33798,-3.35339 -8.01523,-0.76257 -16.10095,-2.18005 -24,-3.72919 -19.62543,-3.84887 -40.24823,-10.20196 -58,-19.51617 C 250.02682,567.92224 240.07289,559.0708 229,554 m 434,87 -1,1 z" />
  </symbol>
</svg>
