<?xml version="1.0" encoding="UTF-8" standalone="no"?>
<!-- Created with Inkscape (http://www.inkscape.org/) -->

<svg
   version="1.1"
   id="svg1"
   width="692.98859"
   height="688.23138"
   viewBox="0 0 692.98859 688.23138"
   sodipodi:docname="logo_inkskape.svg"
   inkscape:version="1.3.1 (91b66b0783, 2023-11-16)"
   xmlns:inkscape="http://www.inkscape.org/namespaces/inkscape"
   xmlns:sodipodi="http://sodipodi.sourceforge.net/DTD/sodipodi-0.dtd"
   xmlns="http://www.w3.org/2000/svg"
   xmlns:svg="http://www.w3.org/2000/svg">
  <defs
     id="defs1" />
  <sodipodi:namedview
     id="namedview1"
     pagecolor="#ffffff"
     bordercolor="#000000"
     borderopacity="0.25"
     inkscape:showpageshadow="2"
     inkscape:pageopacity="0.0"
     inkscape:pagecheckerboard="0"
     inkscape:deskcolor="#d1d1d1"
     inkscape:zoom="0.70710678"
     inkscape:cx="-198.69701"
     inkscape:cy="344.361"
     inkscape:window-width="2560"
     inkscape:window-height="1369"
     inkscape:window-x="-8"
     inkscape:window-y="-8"
     inkscape:window-maximized="1"
     inkscape:current-layer="g8" />
  <g
     id="g8"
     style="display:inline"
     transform="translate(-10.59488,-14.564475)">
    <path
       id="path2"
       style="display:inline;fill:#080808;fill-opacity:1;fill-rule:nonzero;stroke:#000000;stroke-width:0.121927"
       d="M 354.72769,14.703147 C 78.654549,20.709918 -70.139684,322.478 56.071443,531.72658 115.83472,630.80962 227.32043,688.26828 225.423,684.44143 206.95029,647.18455 209.06157,591.94689 183.49136,548.91018 24.038688,280.53859 439.02591,87.40204 552.72183,94.248069 553.49765,94.294784 494.48234,11.662377 354.72769,14.703147 Z m 78.0918,260.341793 c -1.47466,0.0588 -2.9977,0.23551 -4.57422,0.54493 -45.7591,8.98089 -29.12748,51.69288 -50.2168,75.3164 -8.05351,9.02127 -13.40105,7.05447 -20.41015,24.78125 -9.59922,24.2775 24.94541,-6.59876 30.85937,1.18555 10.71248,14.10039 1.54085,19.89454 -14.42578,23.54687 -8.67986,1.98549 -10.10352,4.06147 -11.00781,16.0586 -0.34251,4.54406 -0.73393,8.75671 -0.86914,9.36133 -2.20098,9.84254 84.01527,-76.43289 104.60351,-35.56641 7.74368,22.80731 -18.49874,-10.41248 -62.58593,24.65625 -21.74573,18.33484 -35.52127,31.6856 -66.8711,40.71484 -24.20837,10.68573 -52.37454,28.37494 -79.82422,47.10743 0,0 -39.48117,17.16545 -48.08112,38.55676 -16.63572,41.3793 20.79987,129.20105 20.79987,129.20105 9.11215,20.04111 18.16053,27.48103 36.14844,29.72461 9.7518,1.21632 54.32614,-6.06507 69.75781,-9.31641 73.72306,-15.53289 89.7664,-34.69436 90.13086,-35.01562 47.23838,-41.63894 40.47494,23.1257 135.00196,-1.94532 33.10841,-10.77796 70.15159,-6.28378 71.27539,-5.58789 6.57075,4.06879 -1.00414,6.69081 -23.2168,9.87696 -26.95674,3.8665 -31.50907,5.46718 -66.29688,15.09765 -21.00627,5.81527 -27.92938,9.37967 -42.3457,9.29297 -13.04093,-0.0784 -20.34231,-8.98985 -55.01758,-17.02148 -11.31488,-2.62081 -14.0193,9.21823 -35.37695,17.27734 -7.38908,2.7882 -29.19018,11.504 -38.01367,16.66211 0,0 61.3711,3.0312 92.08398,3.16602 50.93043,0.22356 138.3301,-2.16278 152.74414,-3.90821 101.18024,-20.90429 50.32915,-95.27978 5.08594,-143.57617 -61.03022,-93.96593 -54.04155,-63.78074 -67.81445,-102.36914 -5.86436,-16.43053 -10.47604,49.41656 4.40234,63.31836 11.39794,10.64979 22.25422,50.35364 22.87891,51.23828 18.63395,26.38815 65.76832,32.99857 60.81836,42.24414 -4.1847,7.81619 -36.69924,-27.60931 -118.78125,-20.44922 -17.7586,1.5491 -9.79968,-17.8053 5.66211,-49.5664 10.76083,-22.10456 -2.15436,-50.19137 14.85156,-75.68946 12.9997,-19.49129 4.65225,-30.84336 -15.94531,-50.50781 -13.93996,-13.30845 -11.60075,-3.30401 -20.38672,-37.52539 -5.42245,-21.12046 -27.61882,-23.45747 -9.25196,-32.61719 6.85778,-3.42003 -0.90863,-29.37342 -5.04492,-34.20703 -2.06514,-3.09845 -2.28133,-9.77894 -2.83398,-11.18555 l -1.00391,-2.55859 -9.43164,1.7168 c -14.22552,2.58803 -25.35665,-22.91459 -47.47656,-22.03321 z M 419.86832,458.4219 c 38.28043,-2.17715 56.4911,35.73718 50.71679,88.89062 -13.04797,37.82955 -46.03267,-3.92305 -74.44726,58.50781 -8.13949,17.88362 -64.60932,45.42561 -96.95703,54.18165 -38.89061,6.39696 -37.05148,-22.28548 -56.35938,-49.83985 -18.08677,-29.09138 -30.20007,-56.10334 10.3418,-73.67969 40.12961,-22.05939 80.86817,-41.00444 121.87891,-61.59961 17.07511,-10.55545 32.06602,-15.73522 44.82617,-16.46093 z"
       sodipodi:nodetypes="ssssssscssssssccccscssscsssssscsccssssssssssccccsscsccccs" />
    <path
       style="display:inline;fill:#080808;fill-opacity:1;fill-rule:nonzero;stroke:#000000;stroke-width:0.137201"
       d="m 185.77492,479.15828 c -0.86296,-10.30553 1.17622,-20.27623 2.79067,-31.55471 1.07138,-7.48454 1.52472,-6.70165 3.69871,6.38751 2.91704,17.56303 -0.31806,22.66321 14.63858,33.99733 11.47155,8.69313 20.62731,19.89573 20.64951,23.69864 0.0103,1.66046 -0.6066,2.48661 -3.16,4.23602 -3.33381,2.28409 -7.93933,12.54701 -14.03478,16.3428 -1.94728,1.21262 -6.1495,1.66216 -6.66338,1.72057 -14.9429,1.69844 -17.36007,-48.14964 -17.91931,-54.82816 z"
       id="path3"
       sodipodi:nodetypes="sssscsass" />
    <path
       style="display:inline;fill:#080808;fill-opacity:1;fill-rule:nonzero;stroke:#000000;stroke-width:0.137201"
       d="m 238.04384,563.88429 c 0,0 41.53014,29.39967 60.76147,39.42079 56.13201,29.24944 94.29219,-1.12672 90.37673,2.3972 -11.4582,9.91114 -101.71939,81.67179 -122.13976,29.67826 -8.97954,-22.86336 -46.58691,-57.71859 -28.99844,-71.49625 z"
       id="path3-1"
       sodipodi:nodetypes="cscsc" />
    <rect
       style="fill:#080808;fill-opacity:1;fill-rule:nonzero;stroke:#000000;stroke-width:0.215386"
       id="rect6-5"
       width="45.093388"
       height="107.27874"
       x="589.53534"
       y="223.00227"
       ry="22.431007" />
    <rect
       style="fill:#080808;fill-opacity:1;fill-rule:nonzero;stroke:#000000;stroke-width:0.215386"
       id="rect6-1-3"
       width="44.862015"
       height="107.83202"
       x="256.03693"
       y="-665.60571"
       ry="22.546694"
       transform="rotate(90)" />
    <rect
       style="display:inline;fill:#080808;fill-opacity:1;fill-rule:nonzero;stroke:#000000;stroke-width:0.215386"
       id="rect6-5-1"
       width="45.093388"
       height="107.27874"
       x="486.46423"
       y="134.67218"
       ry="22.431007" />
    <rect
       style="display:inline;fill:#080808;fill-opacity:1;fill-rule:nonzero;stroke:#000000;stroke-width:0.215386"
       id="rect6-1-3-0"
       width="44.862015"
       height="107.83202"
       x="167.70682"
       y="-562.53461"
       ry="22.546694"
       transform="rotate(90)" />
  </g>
</svg>
