<svg class="d-none" xmlns="http://www.w3.org/2000/svg">
  <symbol id="logo" viewBox="0 0 693 689">
   <path
      d="M 266.36484,700.2352 C 248.37691,697.99162 239.32786,690.55046 230.2157,670.50933 196.76662,596.94177 201.98122,534.3548 189.99978,559.61341 171.98767,597.58553 216.26777,658.63253 225.42324,684.4424 226.85125,688.46805 115.83525,630.80904 56.071916,531.72591 -70.139337,322.47712 78.65522,20.709881 354.72864,14.703104 494.48343,11.662331 553.49823,94.225373 552.72135,94.248585 3.4420498,110.66007 129.35575,493.16126 136.87654,500.9899 c 19.20048,19.9864 48.80677,50.76932 120.61983,1.76192 27.4497,-18.7325 55.61648,-36.42074 79.82488,-47.10648 31.34986,-9.02925 45.12558,-22.38049 66.87133,-40.71535 44.08724,-35.06876 70.32988,-1.84875 62.5862,-24.65608 -20.58826,-40.86652 -106.80406,45.40812 -104.60308,35.56557 0.13521,-0.60462 0.52606,-4.81717 0.86857,-9.36124 0.90429,-11.99714 2.32716,-14.07302 11.00703,-16.05851 15.96664,-3.65234 25.13978,-9.44579 14.42729,-23.5462 -5.91397,-7.78432 -40.46042,23.09161 -30.86119,-1.18591 7.00911,-17.7268 12.35772,-15.7599 20.41124,-24.78118 21.08934,-23.62355 4.4578,-66.33576 50.21695,-75.31666 25.22431,-4.95062 36.87677,24.24852 52.05067,21.48795 l 9.43099,-1.71578 1.00483,2.55747 c 0.55265,1.40661 0.76849,8.08858 2.83364,11.18703 4.13629,4.83361 11.90257,30.7867 5.04479,34.20674 -18.36688,9.15973 3.82893,11.49623 9.25138,32.61671 8.78598,34.22141 6.44701,24.21655 20.38698,37.52501 20.59758,19.66447 28.9448,31.01688 15.94509,50.50819 -17.00594,25.49811 -4.08964,53.58501 -14.85048,75.68959 -15.4618,31.76114 -23.42074,51.11472 -5.66212,49.56562 82.08209,-7.1601 114.59628,28.26543 118.78098,20.44923 4.94997,-9.24558 -42.18494,-15.85518 -60.81891,-42.24336 -0.62469,-0.88464 -11.48062,-40.5893 -22.87857,-51.2391 -14.8784,-13.90181 -10.26638,-79.74893 -4.40202,-63.31838 13.77292,38.58844 6.78411,8.40453 67.81439,102.37055 45.24325,48.29644 96.09382,122.67133 -5.08652,143.57564 -14.41406,1.74543 -101.81247,4.13097 -152.74295,3.9074 -30.71291,-0.13482 -92.08526,-3.16485 -92.08526,-3.16485 8.8235,-5.15811 30.62485,-13.875 38.01394,-16.6632 21.35767,-8.05912 24.06233,-19.89811 35.37723,-17.2773 34.6753,8.03164 41.97663,16.94374 55.01757,17.02214 14.41633,0.0867 21.33843,-3.47712 42.34473,-9.29239 34.78784,-9.63048 39.34021,-11.23128 66.29698,-15.09779 22.21268,-3.18615 29.78877,-5.80894 23.21801,-9.87773 -1.1238,-0.69589 -38.16672,-5.18929 -71.27517,5.58868 -94.52711,25.07104 -87.76484,-39.69401 -135.00326,1.94497 -0.36446,0.32126 -16.40734,19.48266 -90.13047,35.01557 -15.43169,3.25134 -60.00499,10.53313 -69.7568,9.31681 z m 32.81686,-40.23368 c 32.34774,-8.75604 88.81722,-36.29828 96.95672,-54.18191 28.41462,-62.43093 61.39846,-20.67768 74.44645,-58.50727 7.69908,-70.87133 -27.24167,-114.65122 -95.54218,-72.42938 -41.01078,20.59519 -81.75019,39.5398 -121.87984,61.59922 -40.54191,17.57636 -28.42787,44.5885 -10.34108,73.67991 19.30792,27.5544 17.46928,56.2364 56.35993,49.83943 z"
      id="path2" />
   <path
      d="m 184.00715,473.76659 c -0.86296,-10.30553 2.94399,-14.88454 4.55844,-26.16302 1.07138,-7.48454 1.52472,-6.70165 3.69871,6.38751 2.91704,17.56303 -0.31806,22.66321 14.63858,33.99733 11.47155,8.69313 20.62731,19.89573 20.64951,23.69864 0.0103,1.66046 -0.6066,2.48661 -3.16,4.23602 -3.33381,2.28409 -7.73991,3.75665 -19.30255,6.45111 -3.84945,0.89704 -7.38694,1.83894 -7.90082,1.89735 -14.9429,1.69844 -12.62263,-43.82642 -13.18187,-50.50494 z"
      id="path3"/>
   <path
      d="m 238.04384,563.88429 c 0,0 41.53014,29.39967 60.76147,39.42079 56.13201,29.24944 94.29219,-1.12672 90.37673,2.3972 -11.4582,9.91114 -101.71939,81.67179 -122.13976,29.67826 -8.97954,-22.86336 -46.58691,-57.71859 -28.99844,-71.49625 z"
      id="path3-1" />
   <rect
      id="rect6"
      width="59.707844"
      height="125.22635"
      x="487.55453"
      y="111.37214"
      ry="26.183689" />
   <rect
      id="rect6-1"
      width="52.367378"
      height="142.77963"
      x="149.93343"
      y="-588.27881"
      ry="29.853922"
      transform="rotate(90)" />
   <rect
      id="rect6-5"
      width="59.707844"
      height="125.22635"
      x="575.85529"
      y="208.02847"
      ry="26.183689" />
   <rect
      id="rect6-1-3"
      width="52.367378"
      height="142.77963"
      x="246.58977"
      y="-676.57953"
      ry="29.853922"
      transform="rotate(90)" />
  </symbol>
</svg>
