<?xml version="1.0" standalone="no"?>
<!DOCTYPE svg PUBLIC "-//W3C//DTD SVG 20010904//EN"
 "http://www.w3.org/TR/2001/REC-SVG-20010904/DTD/svg10.dtd">
<svg version="1.0" xmlns="http://www.w3.org/2000/svg"
 width="702.000000pt" height="702.000000pt" viewBox="0 0 702.000000 702.000000"
 preserveAspectRatio="xMidYMid meet">
<metadata>
Created by potrace 1.14, written by Peter Selinger 2001-2017
</metadata>
<g transform="translate(0.000000,702.000000) scale(0.100000,-0.100000)"
fill="#000000" stroke="none">
<path d="M3219 7016 c-2 -2 -29 -6 -59 -10 -65 -7 -106 -13 -180 -27 -30 -6
-68 -13 -85 -16 -108 -19 -508 -139 -590 -177 -16 -8 -42 -18 -57 -21 -16 -4
-28 -10 -28 -14 0 -4 -6 -8 -13 -8 -20 0 -320 -143 -325 -155 -2 -5 -8 -8 -13
-8 -9 0 -187 -103 -243 -140 -13 -8 -43 -28 -67 -44 -50 -33 -228 -164 -245
-180 -6 -6 -31 -27 -54 -46 -95 -77 -265 -240 -350 -336 -74 -83 -106 -121
-125 -148 -11 -15 -26 -35 -34 -42 -82 -87 -267 -385 -371 -598 -70 -146 -192
-449 -199 -501 -1 -5 -10 -39 -21 -75 -32 -109 -74 -295 -85 -380 -2 -14 -6
-38 -9 -55 -5 -27 -10 -64 -22 -160 -25 -210 -25 -600 1 -795 3 -19 7 -55 10
-80 6 -48 12 -87 21 -135 3 -16 8 -46 10 -65 9 -54 63 -278 86 -348 11 -34 21
-68 22 -75 2 -6 6 -19 9 -27 4 -8 22 -58 40 -110 133 -369 364 -765 616 -1054
118 -134 308 -321 391 -384 19 -15 37 -29 40 -32 31 -35 255 -192 455 -320 50
-31 193 -100 209 -100 8 0 17 -4 20 -9 7 -11 66 -20 66 -9 0 9 -66 204 -79
233 -19 43 -80 249 -86 295 -2 8 -8 35 -14 60 -7 25 -13 52 -15 60 -1 8 -5 31
-9 50 -10 48 -17 89 -23 125 -11 65 -24 141 -29 165 -11 53 -13 154 -3 182 11
31 60 68 91 68 12 0 17 -9 18 -32 2 -65 18 -246 24 -268 3 -8 7 -33 10 -55 2
-22 7 -51 10 -65 3 -14 8 -41 11 -60 3 -19 8 -38 10 -41 2 -3 6 -19 8 -35 7
-33 11 -53 26 -109 6 -22 12 -47 14 -56 17 -69 107 -346 135 -414 97 -234 139
-305 211 -354 52 -36 113 -60 175 -70 90 -14 548 -4 660 14 120 20 169 29 255
50 33 8 156 45 170 51 8 4 20 8 25 10 6 1 21 6 35 12 14 5 27 9 30 8 3 0 21 9
40 21 19 12 38 22 43 22 15 1 114 55 177 96 36 23 99 77 140 119 94 96 151
126 232 121 62 -4 72 -8 171 -72 37 -24 85 -50 106 -58 47 -16 150 -12 241 9
36 8 76 17 90 20 39 7 269 75 328 96 28 11 54 20 57 20 3 0 6 0 8 1 66 20 302
78 342 84 28 4 95 8 150 10 85 3 117 -1 215 -26 63 -16 121 -31 129 -34 19 -8
7 -17 -26 -20 -15 -1 -46 -5 -68 -8 -22 -4 -60 -9 -85 -13 -25 -3 -58 -8 -75
-11 -16 -2 -41 -6 -55 -8 -14 -1 -41 -6 -60 -10 -19 -4 -44 -8 -55 -10 -68
-10 -112 -19 -180 -35 -27 -6 -61 -14 -75 -16 -13 -3 -79 -21 -145 -40 -66
-19 -127 -36 -135 -38 -8 -2 -62 -18 -120 -36 -58 -17 -113 -33 -123 -35 -10
-2 -27 -7 -37 -10 -20 -6 -51 -13 -90 -21 -14 -2 -35 -7 -48 -9 -121 -28 -223
-8 -305 59 -77 62 -103 78 -141 83 -43 6 -89 -17 -135 -66 -121 -129 -100
-115 -311 -215 -117 -56 -130 -64 -164 -104 l-20 -23 1066 1 c587 1 1069 5
1073 8 3 4 27 7 53 9 72 3 168 15 232 28 14 3 39 7 55 9 17 3 50 10 75 16 25
6 53 12 63 15 79 18 179 70 236 121 69 62 104 136 105 222 1 70 -7 132 -18
151 -4 6 -3 11 3 11 14 0 61 -82 67 -116 8 -41 46 -127 63 -140 26 -20 50 -4
69 49 36 96 13 223 -63 342 -44 70 -96 133 -220 270 -20 22 -49 55 -66 73 -16
18 -42 52 -57 75 -15 23 -35 51 -44 61 -10 11 -18 23 -18 27 0 4 -18 35 -40
68 -22 33 -40 65 -40 71 0 5 -4 10 -10 10 -5 0 -10 7 -10 15 0 8 -4 15 -10 15
-5 0 -10 4 -10 10 0 5 -16 36 -36 67 -164 258 -228 343 -386 503 -62 64 -126
133 -143 154 -29 36 -135 203 -135 212 0 11 -114 191 -148 233 -20 25 -131
141 -247 256 -116 116 -223 224 -237 242 -101 120 -157 330 -134 497 10 69 20
85 139 219 29 33 46 81 39 108 -2 9 -30 47 -63 83 -61 69 -82 102 -93 148 -10
42 -38 54 -141 59 -60 2 -96 20 -195 93 -111 82 -139 94 -241 101 -48 3 -85
-2 -154 -19 -43 -12 -141 -72 -188 -118 -93 -90 -146 -196 -153 -308 -10 -158
-15 -203 -28 -234 -8 -18 -50 -69 -94 -112 -60 -59 -84 -91 -96 -127 -26 -77
-9 -169 40 -214 48 -44 139 -26 160 32 13 38 17 -22 3 -63 -22 -69 -63 -99
-149 -108 -54 -5 -91 -30 -101 -68 -4 -15 -10 -70 -12 -122 -3 -61 -11 -103
-21 -118 -17 -27 -59 -44 -98 -40 -24 2 -26 1 -16 -16 29 -46 99 -57 167 -28
76 34 166 97 362 254 285 228 398 286 560 287 84 1 129 -33 115 -87 -4 -18
-16 -26 -48 -34 -50 -13 -100 -22 -143 -26 -16 -2 -39 -7 -50 -10 -32 -11
-145 -68 -158 -80 -7 -6 -46 -37 -87 -68 -41 -31 -97 -77 -125 -102 -122 -111
-276 -207 -505 -315 -387 -183 -394 -187 -643 -349 -250 -164 -349 -224 -470
-284 -65 -33 -126 -61 -135 -63 -9 -2 -64 -22 -122 -45 -58 -23 -109 -43 -115
-44 -5 -2 -30 -9 -55 -16 -133 -39 -155 -23 -216 158 -29 87 -60 157 -90 204
-55 85 -174 307 -174 323 0 6 -4 15 -9 20 -4 6 -22 44 -38 85 -17 41 -34 84
-38 95 -5 11 -9 22 -10 25 -80 259 -99 334 -111 430 -1 14 -5 36 -8 49 -24
107 -24 419 -1 646 5 43 34 203 45 245 5 19 11 46 14 60 17 88 110 375 127
395 5 5 9 15 9 21 0 27 129 292 204 417 25 43 46 83 46 88 0 5 7 12 15 15 8 4
15 10 15 16 0 23 183 273 295 403 79 91 284 297 359 360 32 28 64 55 70 60 9
9 79 64 111 87 6 4 24 18 40 31 129 102 539 337 585 337 6 0 10 5 10 10 0 6 3
9 8 8 4 -1 21 4 37 11 150 60 326 115 435 135 14 3 50 10 80 15 55 11 73 13
220 28 127 12 420 6 510 -11 14 -3 41 -7 60 -10 97 -15 239 -48 285 -66 11 -4
49 -18 85 -30 322 -112 619 -361 765 -642 37 -71 54 -62 35 19 -38 174 -229
465 -409 625 -106 94 -115 102 -179 145 -31 21 -59 41 -62 44 -3 3 -27 19 -55
35 -27 16 -63 37 -80 47 -95 55 -373 180 -428 191 -6 2 -20 6 -29 9 -22 8 -46
16 -53 17 -3 0 -22 7 -44 15 -48 17 -215 54 -343 76 -31 5 -72 12 -90 15 -37
7 -662 16 -669 10z m2154 -4465 c19 -40 22 -67 23 -201 2 -165 9 -237 26 -257
6 -7 8 -13 4 -13 -6 0 39 -73 59 -96 5 -7 35 -41 66 -75 83 -94 90 -102 204
-249 58 -74 111 -142 118 -150 7 -8 41 -51 77 -95 35 -44 69 -85 75 -91 5 -6
33 -38 62 -70 28 -33 107 -115 175 -184 120 -121 184 -212 172 -244 -6 -16
-60 -12 -154 14 -41 11 -84 22 -95 25 -11 3 -31 9 -45 14 -14 6 -38 12 -55 15
-16 3 -68 12 -115 20 -78 13 -143 23 -210 31 -14 2 -47 6 -75 9 -27 4 -72 9
-100 11 -27 3 -66 7 -85 10 -19 3 -82 7 -140 10 -129 5 -186 20 -208 53 -27
42 -25 57 20 162 21 46 40 91 43 100 1 3 7 19 14 35 15 37 57 180 65 220 6 34
14 73 25 125 8 40 6 233 -5 360 -11 140 -8 260 9 287 9 15 21 97 21 148 0 33
-9 70 -27 109 -15 32 -30 73 -32 90 -5 28 -2 26 31 -23 20 -29 46 -74 57 -100z
m-1090 61 c32 -28 54 -91 63 -182 3 -25 8 -52 11 -60 2 -8 11 -37 18 -65 8
-27 35 -97 60 -155 54 -121 103 -249 107 -282 2 -13 6 -27 9 -33 10 -18 4
-169 -9 -210 -35 -119 -102 -164 -357 -240 -49 -15 -112 -39 -138 -53 -58 -31
-141 -118 -170 -179 -12 -24 -25 -43 -29 -43 -4 0 -8 -5 -8 -12 0 -15 -78
-146 -102 -172 -10 -11 -18 -22 -18 -26 0 -7 -125 -90 -136 -90 -4 0 -97 -45
-206 -100 -311 -157 -425 -199 -559 -205 -77 -4 -135 17 -166 61 -11 16 -44
76 -73 133 -54 109 -107 199 -195 336 -28 44 -54 87 -58 95 -4 8 -18 33 -32
55 -42 68 -110 212 -122 260 -24 94 -15 140 41 195 51 51 45 47 396 233 69 36
221 99 427 176 248 93 493 202 501 223 2 4 8 8 13 8 11 0 172 101 181 115 4 5
8 6 8 1 0 -5 8 -2 18 6 37 33 364 218 394 223 18 4 35 8 38 11 9 10 75 -7 93
-24z"/>
<path d="M2333 1413 c30 -83 76 -167 188 -340 103 -160 127 -202 183 -323 39
-85 75 -115 129 -107 116 16 593 236 669 308 41 39 44 47 26 72 -14 18 -32 24
-112 32 -28 2 -62 7 -76 10 -14 3 -38 7 -55 9 -55 8 -188 39 -260 59 -5 2 -25
7 -44 11 -60 14 -234 82 -317 124 -68 33 -186 106 -296 183 -50 35 -58 26 -35
-38z"/>
<path d="M4017 6384 c-1 -1 -36 -5 -77 -9 -259 -21 -531 -94 -782 -209 -31
-14 -61 -26 -67 -26 -5 0 -11 -3 -13 -7 -1 -5 -41 -28 -88 -52 -248 -129 -642
-443 -792 -632 -27 -34 -91 -149 -86 -155 8 -7 70 28 130 74 68 53 259 176
313 202 17 8 32 18 35 21 5 6 117 60 230 111 36 16 74 33 85 38 51 24 215 82
308 110 94 28 114 34 172 45 11 2 20 4 20 5 0 3 59 14 129 25 21 4 48 9 60 11
122 26 368 35 561 20 103 -8 104 -8 290 -42 32 -5 160 -41 185 -51 8 -4 17 -7
20 -7 3 -1 36 -17 75 -36 110 -54 214 -170 210 -235 -1 -11 -2 -30 -3 -42 -2
-26 -45 -51 -82 -48 -15 1 -38 18 -60 45 -83 101 -115 129 -146 126 -86 -7
-116 -68 -116 -232 0 -214 123 -401 317 -484 69 -29 90 -33 200 -34 100 -1
123 2 180 23 203 76 338 279 338 511 0 119 -19 192 -81 303 -69 121 -251 295
-395 376 -254 142 -485 219 -747 247 -60 7 -318 13 -323 8z"/>
<path d="M6566 4203 c-41 -27 -56 -67 -56 -143 l0 -58 -65 -1 c-36 0 -80 -7
-98 -15 -43 -18 -71 -74 -64 -128 11 -81 59 -117 160 -121 l62 -2 5 -65 c3
-36 12 -78 20 -94 19 -39 73 -70 117 -68 84 3 137 77 135 189 l-1 43 42 0 c23
0 51 0 61 1 11 0 36 9 56 20 60 34 79 122 40 184 -25 40 -64 55 -141 55 l-59
0 0 48 c0 121 -51 186 -141 180 -22 -1 -55 -12 -73 -25z"/>
<path d="M6020 3652 c-49 -24 -73 -77 -71 -157 l1 -63 -68 0 c-77 1 -122 -16
-137 -50 -5 -12 -13 -22 -17 -22 -13 0 -9 -79 6 -115 22 -52 68 -75 149 -75
l67 0 1 -60 c1 -33 3 -64 4 -70 1 -5 3 -14 4 -20 2 -19 64 -70 85 -71 12 0 29
-2 38 -4 27 -5 92 32 111 64 11 19 17 51 17 94 l0 64 76 5 c81 5 119 24 141
70 12 25 17 70 11 98 -9 40 -66 89 -103 89 -11 0 -43 0 -72 1 l-52 2 0 69 c0
82 -19 122 -71 150 -42 23 -74 23 -120 1z"/>
<path d="M1811 2644 c-12 -15 -21 -36 -22 -48 -1 -11 -3 -50 -6 -86 -13 -169
-7 -334 17 -445 9 -41 26 -176 29 -233 1 -10 12 -11 44 -7 96 15 215 51 229
70 4 6 8 6 8 2 0 -8 52 25 76 48 6 5 16 25 22 44 18 53 -11 108 -90 168 -149
113 -174 152 -185 288 -12 153 -22 185 -71 213 -29 16 -27 16 -51 -14z"/>
</g>
</svg>
