<svg class="d-none" xmlns="http://www.w3.org/2000/svg">
   <symbol id="logo" viewBox="0 0 706 710">
      <path
         d="m 280.89708,633.14221 c -1.93769,-3.1443 -29.48734,-53.12203 -30.32976,-55.02113 -0.25058,-0.56488 7.2979,2.49314 16.77439,6.79559 24.12817,10.95452 43.77597,17.21321 63.15691,20.11827 l 16.63243,2.49308 -12.69873,7.24385 c -13.35243,7.61673 -31.67158,15.61689 -44.17951,19.29364 -7.28069,2.14018 -7.47996,2.12052 -9.35573,-0.9233 z" />
      <path
         d="m 190.41135,515.09675 c -0.45726,-0.73987 -1.80037,-7.32009 -2.98469,-14.6227 -2.22422,-13.71474 -2.58017,-30.14327 -0.94644,-43.68307 l 0.93852,-7.77818 1.70109,13.29148 c 1.92684,15.05549 4.89452,20.85043 14.66679,28.6396 12.09305,9.63899 14.26221,12.21638 12.71483,15.10769 -2.54653,4.75825 -24.11761,12.23672 -26.0901,9.04518 z" />
      <path
         d="m 493.6724,207.06569 c -13.55783,-4.93206 -23.24587,-13.6323 -29.00359,-26.04635 -2.9193,-6.29426 -3.6102,-9.9525 -3.62137,-19.17514 -0.009,-7.47255 0.65759,-12.31518 1.93605,-14.06357 1.80938,-2.47447 2.19605,-2.5053 5.36656,-0.4279 1.8792,1.23129 4.96757,4.50204 6.86307,7.26834 6.25013,9.12148 15.82114,10.75733 22.69883,3.87963 7.31918,-7.31917 4.96761,-19.22709 -5.87488,-29.74936 -23.18383,-22.49914 -87.52291,-31.127045 -146.80712,-19.68692 -24.56535,4.7404 -50.34007,14.02836 -76.21849,27.46548 -12.80557,6.64916 -23.64213,11.7301 -24.08124,11.29098 -1.7505,-1.75049 17.49337,-18.28174 33.93095,-29.14802 50.93923,-33.674053 104.12694,-48.818998 154.22964,-43.916143 36.81905,3.60297 62.73659,13.224844 85.68979,31.812293 22.20082,17.97819 36.10092,43.5232 33.49893,61.56288 -2.12673,14.74457 -12.04974,29.15795 -24.88257,36.14245 -9.37581,5.10296 -24.03484,6.31628 -33.72456,2.79135 z" />
      <path
         d="m 606.23574,404.11152 c -1.49451,-1.0932 -2.75703,-4.64245 -3.30861,-9.30125 -1.11145,-9.38778 -3.21096,-11.5584 -11.17977,-11.5584 -4.37733,0 -7.11452,-0.85157 -9.09137,-2.82842 -5.66182,-5.66181 -1.88287,-11.31371 7.56451,-11.31371 8.96473,0 11.67171,-2.62402 12.6683,-12.28 0.55593,-5.38646 1.67949,-8.77524 3.30307,-9.96243 5.77813,-4.22507 9.16155,-1.14693 10.64254,9.68231 0.67147,4.90991 1.87374,9.57999 2.67172,10.37797 0.79797,0.79797 5.01016,1.7745 9.36041,2.17006 6.10287,0.55492 8.38025,1.43117 9.9702,3.83614 1.88697,2.85426 1.75718,3.4204 -1.53994,6.71752 -2.61239,2.61239 -5.09654,3.60056 -9.0514,3.60056 -7.9508,0 -10.48072,2.4885 -11.31062,11.12545 -0.5127,5.33579 -1.51994,7.92704 -3.66542,9.42979 -3.59625,2.51892 -3.98331,2.53567 -7.03362,0.30441 z" />
      <path
         d="m 661.22503,346.16765 c -1.21083,-1.7287 -2.20151,-5.40548 -2.20151,-8.17061 0,-7.89303 -3.23114,-11.31371 -10.6868,-11.31371 -4.39815,0 -7.13251,-0.84875 -9.11219,-2.82843 -6.13584,-6.13584 -1.26424,-12.72792 9.40604,-12.72792 7.74852,0 10.39295,-2.72449 10.39295,-10.70761 0,-4.37733 0.85157,-7.11452 2.82842,-9.09138 5.69415,-5.69414 10.46876,-1.92155 11.99133,9.4748 0.54034,4.04441 1.72262,7.96233 2.62729,8.70648 0.90466,0.74416 4.82682,1.81104 8.71591,2.37086 8.33986,1.2005 10.6066,2.70181 10.6066,7.02503 0,4.40986 -2.66218,6.20902 -10.74928,7.26459 -3.81061,0.49738 -7.66857,1.48482 -8.57323,2.19431 -0.90467,0.7095 -2.08695,4.59906 -2.62729,8.64347 -1.53559,11.49381 -7.79894,16.04064 -12.61824,9.16012 z" />
      <path
         d="m 456.08387,701.45333 c -21.00107,-0.57441 -43.21749,-1.12834 -49.3698,-1.23099 l -11.18603,-0.18663 9.06471,-4.48955 c 6.03803,-2.99049 12.15935,-7.71252 18.33295,-14.14213 5.58929,-5.82109 10.42784,-9.65259 12.18963,-9.65259 1.60677,0 6.09424,2.52625 9.97217,5.6139 9.402,7.48599 13.03611,8.67322 26.47722,8.64987 16.22011,-0.0282 27.69194,-2.43817 64.42222,-13.53385 29.48289,-8.90635 35.8623,-10.38775 60.82169,-14.12374 12.30821,-1.84232 23.70499,-4.05956 25.32616,-4.92718 1.77066,-0.94763 2.9476,-2.97764 2.9476,-5.08407 0,-7.48215 -17.16145,-12.63298 -41.07756,-12.32898 -18.2916,0.23249 -41.61429,5.29725 -72.90146,15.83127 -20.61424,6.94058 -27.44178,8.64384 -35.10982,8.75889 -9.12814,0.13694 -9.91472,-0.12994 -19.14913,-6.49694 -8.04212,-5.54492 -10.99743,-6.76256 -17.92319,-7.38463 -13.40577,-1.20413 -18.63752,1.02194 -32.42744,13.79755 -13.4541,12.4645 -27.66883,20.29476 -50.94356,28.06259 -22.88694,7.6384 -38.48214,10.18739 -67.56404,11.04316 -32.38755,0.95305 -38.94277,-0.158 -48.00708,-8.13671 -15.07732,-13.2716 -31.55432,-61.72171 -37.03187,-108.8911 -3.99834,-34.43129 -7.65179,-41.72615 -19.1693,-38.27542 -8.898,2.66592 -10.40862,6.29557 -9.36063,22.49122 1.0862,16.78598 7.37165,48.06263 14.96435,74.46299 3.12141,10.85336 5.3871,20.0216 5.03486,20.37382 -2.13859,2.13859 -35.74272,-18.83145 -57.23781,-35.71821 C 111.60187,605.84244 77.53663,566.83683 59.857621,537.40115 -8.3719784,423.79835 -8.1538692,290.95649 60.445969,179.06106 80.092644,147.01473 112.89609,109.40006 140.71425,87.019978 208.77469,32.264435 302.17948,3.1592088 383.45559,11.381023 c 49.96919,5.054837 98.75045,24.098951 133.17802,51.992455 10.13212,8.209122 23.14496,22.401741 21.78579,23.760923 -0.43914,0.439141 -4.18899,-1.692426 -8.33297,-4.736817 -22.0547,-16.20254 -41.74244,-25.397659 -66.04355,-30.8455 C 411.43766,39.758999 354.4794,47.357272 300.92407,73.312247 233.1746,106.14625 172.45405,169.75104 140.14739,241.72587 c -38.87344,86.60469 -33.25261,180.5951 15.35627,256.78441 6.91138,10.83286 7.99596,13.42583 11.45486,27.38617 0.8412,3.39515 3.13211,7.77563 5.09091,9.73443 3.23087,3.23087 4.31057,3.48315 11.63211,2.71789 8.62585,-0.90157 38.90634,-11.76327 53.96356,-19.35687 8.52725,-4.30044 23.72189,-13.55347 54.39,-33.12169 14.09262,-8.992 32.79015,-18.70231 54.79946,-28.45937 19.46004,-8.62693 30.76354,-15.88302 54.55761,-35.02237 23.32491,-18.76197 33.55881,-24.31866 47.45159,-25.76483 11.86098,-1.23465 15.38993,-3.99745 14.7453,-11.54408 -0.72333,-8.46797 -5.70522,-11.02007 -21.512,-11.02007 -12.55809,0 -13.56067,0.23972 -24.99387,5.97636 -7.65449,3.84065 -17.72293,10.84959 -28.17446,19.61311 -17.24328,14.45831 -32.93801,25.50654 -33.56206,23.62586 -0.2066,-0.62265 0.10087,-5.88218 0.6833,-11.68786 1.16165,-11.57955 0.32862,-10.74088 13.32406,-13.41438 8.92277,-1.83565 15.71664,-14.19544 12.48091,-22.70601 -1.33446,-3.50991 -1.99653,-3.81816 -6.74885,-3.14228 -2.89809,0.41217 -6.30089,1.16689 -7.56177,1.67718 -3.24173,1.31193 -6.89986,-2.8719 -6.89986,-7.89141 0,-5.89451 2.9043,-10.76529 11.13392,-18.67255 8.24318,-7.92032 9.51866,-11.3089 10.6833,-28.38245 1.01598,-14.89386 3.85635,-22.12957 12.27009,-31.2574 10.1255,-10.98487 24.65447,-17.50228 34.7817,-15.60239 2.62849,0.49311 10.00482,4.47648 16.39184,8.85196 13.22037,9.05669 19.05851,11.5445 27.29882,11.63291 5.43822,0.0583 5.88381,0.38132 7.402,5.36537 0.88849,2.91681 4.1888,8.68052 7.33401,12.80826 l 5.71858,7.50496 -2.71489,3.80875 c -1.49318,2.0948 -4.14625,5.08154 -5.89567,6.63717 -11.17137,9.93382 -11.47964,38.91227 -0.66584,62.59154 2.38989,5.23321 8.65614,12.83915 21.14502,25.66568 25.10781,25.78662 27.72977,32.44076 22.58513,57.31761 -2.0657,9.98862 -2.05182,11.92639 0.18046,25.22003 3.78715,22.55304 0.26912,47.24794 -10.08612,70.80002 -7.04905,16.03243 -9.21066,25.06322 -7.49039,31.29349 2.12885,7.71006 6.31689,9.57727 24.35571,10.85879 33.86043,2.40553 68.83469,8.0162 95.68712,15.35038 12.36579,3.37746 17.95894,2.727 19.8745,-2.31133 2.5836,-6.79535 -0.37667,-10.87707 -35.4586,-48.89139 -8.18234,-8.86628 -21.63089,-24.99479 -29.88566,-35.84115 -8.25476,-10.84634 -18.98602,-24.1754 -23.84726,-29.62012 -12.3822,-13.86844 -14.06172,-18.09499 -14.04923,-35.35534 l 0.0102,-14.14213 5.97496,11.3137 c 8.52874,16.14939 12.907,21.98419 30.24374,40.30509 17.44079,18.43087 22.66361,25.50046 42.18662,57.10375 13.36518,21.63518 20.51618,31.27549 38.91365,52.45977 8.63158,9.93908 14.68911,20.49711 16.24953,28.3223 l 0.84604,4.24264 -2.36276,-4.24264 c -3.43143,-6.1616 -9.26666,-12.02081 -11.9716,-12.02081 -1.28956,0 -3.50088,1.27761 -4.91405,2.83914 -2.4283,2.68325 -2.4445,3.28835 -0.29495,11.01981 1.78768,6.42993 1.95531,9.43788 0.78329,14.05525 -3.41035,13.43572 -18.86829,23.62564 -42.19794,27.81697 -31.00584,5.57042 -99.66103,8.27804 -164.75588,6.49763 z M 306.29758,656.46639 c 6.93416,-2.32361 25.0173,-10.33425 40.18474,-17.80144 30.40382,-14.96833 34.09112,-17.89317 42.40242,-33.63456 11.86346,-22.46907 17.42806,-27.21623 40.25619,-34.34254 23.61559,-7.37213 30.11103,-12.94253 33.36415,-28.61268 2.77419,-13.36322 0.0615,-25.72235 -12.00097,-54.67617 -2.87002,-6.88903 -6.46939,-18.2581 -7.99858,-25.26461 -4.50241,-20.62925 -8.18389,-25.46876 -19.3745,-25.46876 -9.35094,0 -14.48629,2.51664 -49.77865,24.39463 -35.099,21.7581 -46.34106,27.31742 -81.31728,40.21215 -25.40172,9.36488 -56.25149,23.88393 -68.16658,32.08171 -18.57033,12.77675 -15.4411,30.20428 13.80413,76.87903 6.33569,10.11163 14.04232,23.79116 17.12581,30.39896 6.33295,13.57117 8.56859,16.52952 14.60922,19.33186 6.38868,2.96379 22.03444,1.4804 36.8899,-3.49758 z" />
   </symbol>
</svg>